<svg width="82" height="26" viewBox="0 0 82 26" fill="none" xmlns="http://www.w3.org/2000/svg">
  <path d="M34.5147 25.4H27.3217L31.7097 0.599998H38.9027L34.5147 25.4ZM19.1607 0.599998L12.2417 17.953L11.6017 15.089L11.6037 15.091L9.25766 3.461C9.25766 3.461 8.95366 0.599998 5.65366 0.599998H0.115664L0.00366416 0.998998C0.00366416 0.998998 2.49366 1.511 5.41366 3.064L11.6017 25.4H19.0327L30.0647 0.599998H19.1607ZM74.9877 25.4H81.6147L76.1557 0.599998H70.5557C67.7337 0.599998 67.1767 2.904 67.1767 2.904L57.3647 25.4H64.7327L66.1337 21.721H74.4307L74.9877 25.4ZM67.8597 16.225L71.2037 7.669L72.8717 16.225H67.8597ZM52.1827 7.412L52.9397 3.064C52.9397 3.064 50.1177 2.043 47.2957 2.043C44.2167 2.043 37.7957 3.321 37.7957 9.196C37.7957 14.686 45.4897 14.943 45.4897 17.824C45.4897 20.705 38.8107 20.062 36.3727 18.527L35.5647 23.132C35.5647 23.132 38.3867 24.411 42.4947 24.411C46.6027 24.411 52.7677 22.494 52.7677 16.673C52.7677 11.11 44.9877 10.475 44.9877 7.923C44.9877 5.371 50.2597 5.757 52.1827 7.412Z" fill="black"/>
</svg> 